<!DOCTYPE svg PUBLIC "-//W3C//DTD SVG 20010904//EN" "http://www.w3.org/TR/2001/REC-SVG-20010904/DTD/svg10.dtd">
<svg version="1.0" xmlns="http://www.w3.org/2000/svg" width="210px" height="193px" viewBox="0 0 2100 1930" preserveAspectRatio="xMidYMid meet">
<g id="layer101" fill="#ffffff" stroke="none">
 <path d="M490 1919 c0 -6 37 -74 81 -151 l82 -140 -79 -80 c-44 -43 -190 -190 -327 -326 -136 -136 -247 -251 -247 -257 0 -6 146 -156 325 -335 179 -179 325 -328 325 -332 0 -4 -36 -68 -80 -144 -44 -75 -80 -140 -80 -145 0 -5 237 -9 555 -9 512 0 555 1 555 17 0 9 -29 66 -64 127 -35 61 -69 122 -76 135 -12 23 2 38 314 350 179 179 326 331 326 336 0 5 -147 157 -327 337 l-326 326 81 141 c45 77 82 145 82 150 0 8 -174 11 -560 11 -391 0 -560 -3 -560 -11z m1047 -36 c-33 -65 -123 -213 -128 -213 -3 0 -12 7 -19 15 -7 8 -18 15 -24 15 -6 0 -44 -33 -85 -74 l-73 -73 -75 71 c-41 39 -78 72 -82 74 -4 1 -42 -31 -83 -72 l-75 -74 -74 74 c-40 41 -79 74 -85 74 -6 0 -17 -7 -24 -15 -7 -8 -16 -15 -19 -15 -5 0 -95 148 -128 213 -2 4 217 7 487 7 270 0 489 -3 487 -7z m-693 -380 c-8 -6 -21 -19 -28 -28 -10 -14 -18 -5 -55 60 -62 110 -49 127 35 44 56 -56 62 -65 48 -76z m536 114 c0 -7 -20 -44 -43 -84 l-43 -72 -27 27 -27 27 62 62 c57 58 78 69 78 40z m-267 -45 l57 -58 -60 -59 -60 -59 -60 59 -60 59 57 58 c32 32 60 58 63 58 3 0 31 -26 63 -58z m-393 -60 c22 -38 40 -74 40 -81 0 -7 -99 -111 -220 -233 -121 -121 -220 -228 -220 -237 0 -9 101 -117 224 -240 l224 -223 -41 -72 c-22 -39 -42 -73 -44 -76 -2 -2 -143 135 -313 305 l-310 310 307 307 c170 170 309 308 310 308 1 0 20 -31 43 -68z m1011 -241 c165 -164 299 -302 299 -307 0 -15 -612 -620 -616 -609 -2 6 -22 39 -44 75 l-39 65 225 225 c123 124 224 232 224 240 0 8 -101 116 -225 240 l-225 225 42 73 c23 39 46 72 51 72 5 0 144 -134 308 -299z m-761 44 c-24 -25 -47 -45 -50 -45 -3 0 -25 33 -47 73 l-42 72 32 33 31 32 60 -60 60 -60 -44 -45z m264 41 c-19 -34 -39 -68 -44 -76 -7 -12 -18 -6 -57 32 l-48 48 60 60 59 60 33 -32 32 -31 -35 -61z m-477 -254 c-70 -70 -127 -134 -127 -142 0 -8 56 -71 125 -140 l126 -126 -44 -77 -43 -76 -210 210 -209 209 210 210 209 209 45 -75 44 -76 -126 -126z m773 56 l195 -198 -210 -210 -209 -209 -43 76 -44 77 126 126 c69 69 125 132 125 140 0 8 -57 72 -126 141 l-127 127 43 75 c37 64 45 74 59 64 9 -7 104 -101 211 -209z m-425 112 l50 -51 -28 -47 c-15 -26 -37 -66 -49 -89 -12 -24 -24 -43 -27 -43 -5 0 -68 107 -95 162 -8 15 0 28 39 68 27 28 52 50 55 50 3 0 28 -23 55 -50z m-131 -200 c41 -71 63 -100 76 -100 13 0 35 29 76 100 31 55 59 102 63 105 4 2 57 -45 117 -106 l109 -109 -111 -111 -111 -111 -64 111 c-39 68 -69 111 -79 111 -10 0 -40 -43 -79 -111 l-64 -111 -111 111 -111 111 109 109 c60 61 113 108 117 106 4 -3 32 -50 63 -105z m133 -277 l51 -88 -54 -55 -54 -55 -54 55 -55 55 52 88 c28 48 54 87 57 87 3 0 28 -39 57 -87z m-152 -293 l-60 -60 -33 34 -34 33 44 76 43 76 50 -50 50 -49 -60 -60z m283 -26 l-33 -34 -60 60 -59 60 48 49 49 50 45 -76 44 -76 -34 -33z m-125 -12 l57 -58 -60 -59 -60 -59 -60 59 -60 59 57 58 c32 32 60 58 63 58 3 0 31 -26 63 -58z m-310 -114 c-32 -32 -61 -58 -66 -58 -22 0 -14 34 24 99 l42 72 28 -27 29 -28 -57 -58z m536 41 c23 -39 41 -75 41 -79 0 -28 -29 -15 -81 36 l-59 58 27 28 c15 15 28 28 29 28 1 0 21 -32 43 -71z m-289 -159 c8 0 46 32 85 70 l71 70 69 -70 c38 -38 76 -70 84 -70 8 0 23 7 33 17 10 9 20 14 22 12 2 -2 30 -51 64 -109 l60 -105 -244 -3 c-134 -1 -354 -1 -488 0 l-244 3 60 105 c34 58 62 107 64 109 2 2 12 -3 22 -12 10 -10 25 -17 33 -17 8 0 46 32 84 70 l69 70 71 -70 c39 -38 77 -70 85 -70z"/>
 </g>

</svg>